<!DOCTYPE svg PUBLIC "-//W3C//DTD SVG 1.1//EN" "http://www.w3.org/Graphics/SVG/1.1/DTD/svg11.dtd">
<!-- Uploaded to: SVG Repo, www.svgrepo.com, Transformed by: SVG Repo Mixer Tools -->
<svg width="800px" height="800px" viewBox="0 0 24 24" xmlns="http://www.w3.org/2000/svg" fill="#ffffff">
<g id="SVGRepo_bgCarrier" stroke-width="0"/>
<g id="SVGRepo_tracerCarrier" stroke-linecap="round" stroke-linejoin="round"/>
<g id="SVGRepo_iconCarrier">
<path d="M1 21h22V3H1zm5-1v-3h8v3zm8-8H6V9h8zm0 1v3H6v-3zm8 7h-7v-3h7zm0-4h-7v-3h7zm0-4h-7V9h7zM2 4h20v4H2zm0 5h3v3H2zm0 4h3v3H2zm0 4h3v3H2z"/>
<path fill="none" d="M0 0h24v24H0z"/>
</g>
</svg>